<?xml version="1.0" encoding="UTF-8"?>
<svg xmlns="http://www.w3.org/2000/svg" xmlns:xlink="http://www.w3.org/1999/xlink" version="1.1" viewBox="0 0 90 60">
  <defs>
    <style>
      .cls-1 {
        clip-path: url(#clippath);
      }

      .cls-2, .cls-3, .cls-4 {
        stroke-width: 0px;
      }

      .cls-2, .cls-5 {
        fill: none;
      }

      .cls-3 {
        fill: #fff6e5;
      }

      .cls-5 {
        stroke: #d4693f;
        stroke-linecap: round;
        stroke-linejoin: round;
        stroke-width: 21px;
      }

      .cls-4 {
        fill: #3d220f;
      }
    </style>
    <clipPath id="clippath">
      <rect class="cls-2" x="209.4" y="-379.2" width="1280" height="2774"/>
    </clipPath>
  </defs>
  <g id="Layer_1" data-name="Layer 1">
    <g class="cls-1">
      <path class="cls-5" d="M219.7,113.3s10.9,48.1,70.5,34.7c65.1-14.6,57.9-80,57.9-80,0,0-5.7-74.7-78.6-85.7-112.5-16.9-124.5,80.6-125,107.9,0,3-3.1,4.9-5.8,3.6-59.2-27.1-89.6,11.6-103.8,43-8.6,19.1-28.9,30-49.5,26.4l-17.6-3.1c-2.8-.5-4.6,2.7-2.7,4.9,6.2,7.4,13.8,22.2,14.9,50.6,1.8,47.5,70.2,62,107.7,28.5,1.5-1.4,3.8-1.5,5.4-.2,7.9,6.5,40.8,23.7,63.7-1.2,27.4-29.7,10.7-62.2-10.5-67.7-21.2-5.5-37.3,5.2-40.7,19.5"/>
    </g>
  </g>
  <g id="_标注" data-name="标注">
    <g>
      <g>
        <path class="cls-3" d="M74.9,30c0-4.7,3.8-8.5,8.5-8.5V6H6.5v15.5c4.7,0,8.5,3.8,8.5,8.5s-3.8,8.5-8.5,8.5v15.5h76.9v-15.5c-4.7,0-8.5-3.8-8.5-8.5Z"/>
        <path class="cls-4" d="M83.5,6v15.5c-4.7,0-8.5,3.8-8.5,8.5s3.8,8.5,8.5,8.5v15.5H6.5v-15.5c4.7,0,8.5-3.8,8.5-8.5s-3.8-8.5-8.5-8.5V6h76.9M83.5,1.4H6.5C4,1.4,1.9,3.4,1.9,6v15.5c0,2.6,2.1,4.7,4.7,4.7s3.9,1.7,3.9,3.9-1.7,3.9-3.9,3.9-4.7,2.1-4.7,4.7v15.5c0,2.6,2.1,4.7,4.7,4.7h76.9c2.6,0,4.7-2.1,4.7-4.7v-15.5c0-2.6-2.1-4.7-4.7-4.7s-3.9-1.7-3.9-3.9,1.7-3.9,3.9-3.9,4.7-2.1,4.7-4.7V6c0-2.6-2.1-4.7-4.7-4.7h0Z"/>
      </g>
      <g>
        <path class="cls-4" d="M45.1,22.3c.1-.6.4-1,.8-1.2s.8-.3,1.2-.2c.4,0,.8.3,1,.6.3.3.4.8.3,1.4-.1.7-.3,1.4-.4,2.1-.2.7-.4,1.4-.6,2.1-.3.9-.6,1.8-.9,2.6-.3.9-.7,1.7-1,2.6-.3.8-.6,1.7-.9,2.5-.3.8-.6,1.7-1,2.5-.1.3-.2.6-.3.9-.1.3-.3.6-.5.8-.3.4-.7.6-1.1.7-.5,0-.9,0-1.3-.4-.3-.3-.5-.6-.6-1-.1-.4-.3-.7-.4-1.1-.2-.4-.4-.9-.6-1.5-.2-.5-.4-1-.5-1.5-.3-.8-.6-1.7-.9-2.5-.3-.8-.6-1.7-.9-2.5-.3.8-.5,1.5-.8,2.3-.3.7-.6,1.5-.8,2.2-.2.5-.4,1-.6,1.5-.2.5-.4,1-.6,1.5-.1.3-.2.6-.3.8,0,.2-.2.5-.4.8-.1.3-.3.6-.6.8-.3.2-.5.4-.8.5-.3,0-.6,0-.9,0-.3,0-.6-.3-.8-.7-.3-.5-.5-1.1-.7-1.7-.1-.7-.3-1.2-.4-1.8-.1-.3-.2-.7-.3-1-.1-.3-.2-.7-.3-1-.1-.3-.2-.7-.3-1-.1-.3-.2-.7-.3-1-.4-1.1-.8-2.1-1.2-3.2-.4-1.1-.8-2.1-1.2-3.2,0-.2-.2-.5-.3-.7-.1-.2-.3-.5-.4-.7-.1-.3-.2-.5-.3-.8,0-.3,0-.5,0-.7,0-.3.2-.6.3-.8.2-.2.4-.4.7-.5.3-.1.5-.1.8-.1.3,0,.6.1.8.3.5.4.9,1,1.1,1.7.3.7.5,1.4.7,2,.3.7.5,1.3.7,2,.2.7.5,1.3.7,2,.3.7.5,1.4.8,2.1.2.7.5,1.4.7,2.1,0-.2.1-.3.2-.5,0-.2.1-.4.2-.5.4-.9.7-1.9,1-2.8.3-.9.6-1.8.9-2.8,0-.3.2-.5.2-.8,0-.3.1-.5.2-.8.1-.4.2-.8.3-1,0-.3.1-.5.3-.8.2-.3.4-.5.7-.6.3-.1.6-.2.9-.2.3,0,.6,0,.8.2.3.1.4.4.6.7,0,.1.1.3.2.5,0,.2.2.5.3.8,0,.3.2.5.3.8,0,.2.2.4.2.5.2.6.4,1.2.6,1.8.2.6.4,1.2.6,1.8.3.8.5,1.5.8,2.2.3.7.5,1.5.8,2.2.2-.5.3-1,.5-1.5.1-.5.3-1,.5-1.5.5-1.3,1-2.7,1.4-4,.5-1.3.8-2.7,1-4.1v-.2Z"/>
        <path class="cls-4" d="M41.4,40.6c-.6,0-1.1-.2-1.6-.6-.4-.4-.7-.8-.9-1.3-.1-.4-.3-.7-.4-1-.2-.5-.4-1-.6-1.5-.2-.6-.4-1-.6-1.5-.3-.8-.6-1.7-.9-2.5,0,0,0-.2,0-.3,0,0,0,0,0,0-.3.7-.6,1.5-.8,2.2-.2.5-.4,1-.6,1.5-.2.5-.4,1-.6,1.5-.1.3-.2.6-.3.8,0,.2-.2.5-.4.8-.2.4-.4.7-.8,1.1-.4.3-.7.5-1.2.7-.5.1-.9.1-1.4,0-.5-.2-.9-.5-1.3-1-.4-.6-.6-1.2-.8-2-.1-.6-.3-1.2-.4-1.7-.1-.3-.2-.7-.3-1,0-.3-.2-.6-.3-.9-.1-.3-.2-.7-.3-1l-.4-1c-.4-1.1-.8-2.1-1.2-3.2-.4-1.1-.8-2.1-1.2-3.2,0-.2-.2-.4-.3-.6-.1-.3-.3-.5-.4-.8-.1-.3-.2-.6-.3-.9,0-.3-.1-.7,0-1,0-.5.2-1,.6-1.3.3-.3.6-.6,1-.7.4-.2.8-.2,1.2-.2.5,0,.9.2,1.3.5.6.5,1.1,1.2,1.4,2.1.2.7.5,1.4.7,1.9.3.6.5,1.3.7,2,.2.6.5,1.3.7,1.9.2.7.5,1.3.7,1.9.2-.5.4-1,.6-1.6.3-.9.6-1.8.9-2.7,0-.3.2-.5.2-.8,0-.3.1-.6.2-.8.1-.5.2-.8.2-.9,0-.4.2-.8.5-1.2.3-.4.6-.7,1.1-.9.4-.2.8-.2,1.2-.2.4,0,.9.1,1.2.4.4.2.7.6.9,1.1,0,0,.1.3.2.5,0,.2.2.5.3.8,0,.3.2.5.3.7.1.3.2.4.2.6.2.6.4,1.2.6,1.7.2.6.4,1.2.6,1.8.2.7.5,1.4.7,2.1,0-.2.2-.4.2-.6.5-1.3,1-2.7,1.4-4,.4-1.3.8-2.6,1-4v-.2c.3-.8.7-1.4,1.3-1.7.6-.3,1.2-.4,1.8-.3.6.1,1.1.4,1.6.9.4.5.6,1.2.5,2-.1.7-.3,1.5-.5,2.2-.2.7-.4,1.4-.6,2.1-.3.9-.6,1.8-1,2.7-.3.8-.7,1.7-.9,2.6-.3.9-.6,1.7-.9,2.5-.3.8-.6,1.7-1,2.5l-.3.9c-.2.4-.4.7-.6,1-.4.5-1,.9-1.7,1-.1,0-.3,0-.4,0ZM36.4,26.7l.9,2.3c.3.8.6,1.7.9,2.6.3.8.6,1.7.9,2.5.2.4.3.9.5,1.4.2.5.4,1,.6,1.5.1.3.3.7.4,1.1,0,.2.2.4.4.6.2.1.3.2.6.2.3,0,.4-.1.6-.3.2-.2.3-.4.3-.6l.3-.9c.3-.8.7-1.7,1-2.5.3-.8.6-1.7.9-2.5.3-.9.6-1.8,1-2.7.3-.8.6-1.7.9-2.6.2-.7.4-1.4.6-2,.2-.7.3-1.4.4-2,0-.4,0-.6-.1-.7-.1-.2-.3-.3-.5-.3-.2,0-.4,0-.6.1,0,0-.3.2-.4.6h0c-.3,1.6-.6,3-1.1,4.4-.5,1.4-1,2.7-1.4,4-.2.5-.3.9-.5,1.4-.2.5-.3,1-.5,1.5l-.8,2.2-.9-2.2c-.3-.7-.6-1.5-.8-2.2-.3-.7-.5-1.5-.8-2.3-.2-.6-.4-1.2-.6-1.8-.2-.6-.4-1.2-.6-1.7,0-.1-.1-.3-.2-.5,0-.2-.2-.5-.3-.8,0-.3-.2-.5-.3-.7,0-.2-.1-.4-.2-.4,0-.2-.2-.3-.2-.3-.1,0-.3-.1-.4-.1-.2,0-.3,0-.5,0-.1,0-.2.1-.3.2-.1.2-.2.4-.2.5,0,.3-.1.7-.3,1.2,0,.2-.1.5-.2.8,0,.3-.2.6-.3.9-.3.9-.6,1.9-.9,2.8-.3.9-.7,1.9-1.1,2.8,0,.2-.1.3-.2.5,0,.2-.1.4-.2.6l-.9,2.1-.7-2.2c-.2-.7-.5-1.4-.7-2.1-.2-.7-.5-1.4-.8-2.1-.3-.6-.5-1.3-.7-2-.2-.6-.5-1.3-.7-1.9-.2-.6-.5-1.3-.7-2-.2-.6-.5-1-.9-1.3-.1,0-.2-.1-.3-.1-.2,0-.3,0-.4,0-.1,0-.2.1-.3.3,0,0-.1.2-.1.3,0,.1,0,.3,0,.4,0,.2.1.4.2.6.1.2.2.4.3.7.2.3.3.6.4.8.4,1,.8,2.1,1.2,3.1.4,1.1.8,2.1,1.2,3.2l.3,1c.1.3.2.7.4,1,.1.3.2.7.3,1,.1.3.2.7.3,1,.2.6.3,1.2.5,1.9,0,.5.3,1,.5,1.4.1.2.2.3.3.3.1,0,.3,0,.4,0,.2,0,.3-.1.5-.3.2-.1.3-.3.4-.5.2-.4.3-.7.4-.8,0-.2.2-.4.3-.7.2-.5.4-1,.6-1.5.2-.5.4-1,.6-1.5.2-.7.5-1.5.8-2.2.3-.7.6-1.5.8-2.2l.8-2.3Z"/>
      </g>
      <g>
        <path class="cls-4" d="M62.3,9.3c-.8,0-1.4-.6-1.4-1.4v-1.9c0-.8.6-1.4,1.4-1.4s1.4.6,1.4,1.4v1.9c0,.8-.6,1.4-1.4,1.4Z"/>
        <path class="cls-4" d="M62.3,49.5c-.8,0-1.4-.6-1.4-1.4v-4c0-.8.6-1.4,1.4-1.4s1.4.6,1.4,1.4v4c0,.8-.6,1.4-1.4,1.4ZM62.3,41.4c-.8,0-1.4-.6-1.4-1.4v-4c0-.8.6-1.4,1.4-1.4s1.4.6,1.4,1.4v4c0,.8-.6,1.4-1.4,1.4ZM62.3,33.4c-.8,0-1.4-.6-1.4-1.4v-4c0-.8.6-1.4,1.4-1.4s1.4.6,1.4,1.4v4c0,.8-.6,1.4-1.4,1.4ZM62.3,25.4c-.8,0-1.4-.6-1.4-1.4v-4c0-.8.6-1.4,1.4-1.4s1.4.6,1.4,1.4v4c0,.8-.6,1.4-1.4,1.4ZM62.3,17.3c-.8,0-1.4-.6-1.4-1.4v-4c0-.8.6-1.4,1.4-1.4s1.4.6,1.4,1.4v4c0,.8-.6,1.4-1.4,1.4Z"/>
        <path class="cls-4" d="M62.3,55.4c-.8,0-1.4-.6-1.4-1.4v-1.9c0-.8.6-1.4,1.4-1.4s1.4.6,1.4,1.4v1.9c0,.8-.6,1.4-1.4,1.4Z"/>
      </g>
    </g>
  </g>
</svg>