<svg width="60" height="60" viewBox="0 0 60 60" fill="none" xmlns="http://www.w3.org/2000/svg">
<g clip-path="url(#clip0_1995_71571)">
<mask id="mask0_1995_71571" style="mask-type:luminance" maskUnits="userSpaceOnUse" x="0" y="0" width="60" height="60">
<path d="M60 0H0V60H60V0Z" fill="white"/>
</mask>
<g mask="url(#mask0_1995_71571)">
<path d="M60 0H0V60H60V0Z" fill="url(#paint0_linear_1995_71571)"/>
<path fill-rule="evenodd" clip-rule="evenodd" d="M29.9998 50.6606C41.4101 50.6606 50.6608 41.4107 50.6608 30C50.6608 18.5892 41.4101 9.33936 29.9998 9.33936C18.5894 9.33936 9.33936 18.5892 9.33936 30C9.33936 41.4107 18.5894 50.6606 29.9998 50.6606ZM28.2967 16.7571L24.6936 23.7891C24.4854 24.1956 24.0858 24.4738 23.6272 24.5316L16.4763 25.4334C16.0032 25.4931 15.5716 25.7296 15.271 26.094C14.6244 26.8776 14.7454 28.0289 15.5414 28.6654L18.3307 30.896C19.3344 31.6987 20.6327 32.0528 21.9129 31.8731L30.2873 30.6977C30.4445 30.6756 30.5987 30.7546 30.6707 30.894C30.7637 31.074 30.6908 31.2941 30.5079 31.3856L23.6605 34.8123C22.1523 35.5671 21.1114 36.9972 20.8704 38.6459L20.3776 42.0169C20.3257 42.3719 20.3868 42.7344 20.5526 43.0539C20.9957 43.9079 22.0582 44.2468 22.9259 43.8107L29.091 40.7117C29.5275 40.4923 30.0457 40.4989 30.4762 40.7293L36.4267 43.915C36.7852 44.107 37.1958 44.1831 37.6007 44.133C38.6691 44.001 39.4267 43.0414 39.2926 41.99L38.3567 34.6427C38.317 34.3314 38.4272 34.0198 38.6546 33.8001L44.2867 28.3579C44.5731 28.0812 44.7552 27.7167 44.8027 27.3245C44.9182 26.3722 44.2276 25.508 43.2601 25.3942L36.1346 24.5565C35.5114 24.4833 34.968 24.105 34.69 23.551L31.2872 16.7694C31.1267 16.4496 30.865 16.1897 30.5415 16.0291C29.7174 15.6199 28.7124 15.9458 28.2967 16.7571Z" fill="white" fill-opacity="0.5"/>
<path fill-rule="evenodd" clip-rule="evenodd" d="M29.9999 9.33861C18.5892 9.33861 9.33869 18.5888 9.33869 30.0002C9.33869 41.4113 18.5892 50.6617 29.9999 50.6617C41.4105 50.6617 50.6617 41.4113 50.6617 30.0002C50.6617 18.5889 41.4105 9.33861 29.9999 9.33861ZM4.75879 30.0002C4.75879 16.0596 16.0596 4.75879 29.9999 4.75879C43.94 4.75879 55.2415 16.0595 55.2415 30.0002C55.2415 43.9409 43.94 55.2415 29.9999 55.2415C16.0596 55.2415 4.75879 43.9409 4.75879 30.0002Z" fill="white" fill-opacity="0.8"/>
<path fill-rule="evenodd" clip-rule="evenodd" d="M24.6934 23.7892L28.2964 16.7571C28.7121 15.9459 29.7171 15.62 30.5412 16.0292C30.8647 16.1898 31.1264 16.4497 31.2869 16.7695L34.6897 23.5511C34.9676 24.1051 35.5111 24.4833 36.1343 24.5566L43.2598 25.3943C44.2273 25.508 44.9179 26.3723 44.8025 27.3246C44.7549 27.7168 44.5728 28.0813 44.2865 28.358L38.6543 33.8001C38.4269 34.0199 38.3167 34.3315 38.3564 34.6428L39.2924 41.9898C39.4263 43.0416 38.6689 44.0012 37.6004 44.1332C37.1955 44.1833 36.7849 44.1067 36.4264 43.9151L30.4759 40.7294C30.0454 40.4989 29.5271 40.4923 29.0907 40.7117L22.9256 43.8109C22.0579 44.247 20.9953 43.9081 20.5523 43.054C20.3865 42.7342 20.3254 42.3721 20.3773 42.0167L20.8701 38.646C21.1111 36.9973 22.1519 35.5671 23.6602 34.8123L30.5077 31.3856C30.6905 31.2942 30.7633 31.0741 30.6704 30.8941C30.5984 30.7546 30.4443 30.6757 30.2869 30.6978L21.9126 31.8732C20.6324 32.0529 19.3341 31.6988 18.3304 30.8961L15.5411 28.6655C14.7452 28.029 14.624 26.8777 15.2706 26.0941C15.5713 25.7297 16.0029 25.4931 16.4759 25.4335L23.6269 24.5317C24.0855 24.4738 24.4851 24.1957 24.6934 23.7892Z" fill="white" fill-opacity="0.9"/>
<g filter="url(#filter0_d_1995_71571)">
<path d="M50.7789 65.6994C59.6006 62.4909 62.7409 55.0608 59.3506 45.729L57.9185 41.7768C56.6399 38.2721 54.0135 36.4138 51.7671 37.23C51.1224 37.4705 50.8567 38.0055 51.093 38.6462L51.6764 40.2485C51.8854 40.8143 51.7538 41.2046 51.4311 41.3328C51.0744 41.4565 50.7235 41.2609 50.5145 40.6659L50.1367 39.628C49.336 37.4187 47.3126 36.4013 45.3123 37.1254C44.3084 37.4952 43.9522 38.1932 44.2691 39.1117L45.0731 41.3121C45.297 41.9072 45.1654 42.2684 44.8468 42.3963C44.4711 42.5245 44.1346 42.3536 43.9153 41.7441L43.1643 39.6865C42.3123 37.3354 40.4525 36.435 38.3739 37.1984C37.3936 37.5491 37.0137 38.2708 37.3307 39.1555L38.9341 43.5487C39.1433 44.1288 39.0161 44.519 38.6933 44.6328C38.3513 44.7611 38.0003 44.5608 37.7912 43.9658L32.6603 29.8833C32.0509 28.2239 30.5153 27.455 29.0223 28.0024C27.4529 28.5735 26.7761 30.134 27.3854 31.7934L34.6642 51.7943C34.7969 52.1601 34.6844 52.4063 34.4661 52.492C34.2771 52.5627 34.0734 52.4965 33.8473 52.2656L29.095 47.1065C28.208 46.1519 27.0974 45.5957 25.7541 46.0914C24.0881 46.6918 23.3327 48.2287 23.9003 49.8156C24.0825 50.3047 24.322 50.7565 24.6053 51.0785L31.6874 59.6841C37.3801 66.6181 43.8318 68.2211 50.7789 65.6994Z" fill="url(#paint1_linear_1995_71571)"/>
</g>
</g>
</g>
<defs>
<filter id="filter0_d_1995_71571" x="-26.2866" y="-22.1724" width="136.973" height="138.996" filterUnits="userSpaceOnUse" color-interpolation-filters="sRGB">
<feFlood flood-opacity="0" result="BackgroundImageFix"/>
<feColorMatrix in="SourceAlpha" type="matrix" values="0 0 0 0 0 0 0 0 0 0 0 0 0 0 0 0 0 0 127 0" result="hardAlpha"/>
<feOffset/>
<feGaussianBlur stdDeviation="25"/>
<feComposite in2="hardAlpha" operator="out"/>
<feColorMatrix type="matrix" values="0 0 0 0 0.4 0 0 0 0 0.372549 0 0 0 0 1 0 0 0 0.6 0"/>
<feBlend mode="normal" in2="BackgroundImageFix" result="effect1_dropShadow_1995_71571"/>
<feBlend mode="normal" in="SourceGraphic" in2="effect1_dropShadow_1995_71571" result="shape"/>
</filter>
<linearGradient id="paint0_linear_1995_71571" x1="30" y1="0" x2="30" y2="60" gradientUnits="userSpaceOnUse">
<stop stop-color="#82B1FF"/>
<stop offset="1" stop-color="#665FFF"/>
</linearGradient>
<linearGradient id="paint1_linear_1995_71571" x1="37.5268" y1="38.2932" x2="64.6364" y2="72.9648" gradientUnits="userSpaceOnUse">
<stop stop-color="white"/>
<stop offset="1" stop-color="#665FFF"/>
</linearGradient>
<clipPath id="clip0_1995_71571">
<rect width="60" height="60" rx="14" fill="white"/>
</clipPath>
</defs>
</svg>
