<svg xmlns="http://www.w3.org/2000/svg" width="60" height="60" viewBox="0 0 60 60" fill="none">
  <g clip-path="url(#clip0_3029_38042)">
    <rect width="60" height="60" rx="14" fill="url(#paint0_linear_3029_38042)"/>
    <g opacity="0.1">
      <path d="M19.7472 22.5714C19.8949 22.0249 20.0848 21.5767 20.256 21.2538C20.2197 20.9603 20.2521 20.5979 20.3962 20.1678C19.6851 21.6827 19.2808 23.1958 17.9756 23.681C18.2967 23.7246 19.0707 23.7 19.5975 23.2524C19.6387 23.0112 19.6899 22.7836 19.7472 22.5714Z" fill="black"/>
      <path fill-rule="evenodd" clip-rule="evenodd" d="M31.964 38.2815C32.0043 38.1631 31.9732 38.0321 31.8839 37.9444C31.7947 37.8568 31.6631 37.8281 31.5454 37.8705C30.0144 38.4225 28.4993 38.7064 25.9903 39.0572C25.8517 39.0766 25.741 39.1824 25.7154 39.32C25.6898 39.4576 25.755 39.5961 25.8773 39.6641C26.0088 39.7372 26.1839 39.9117 26.3631 40.1379C26.5349 40.3548 26.6833 40.5838 26.7652 40.7247C26.8137 40.8081 26.8966 40.8657 26.9917 40.8819C27.1523 40.9095 27.5854 40.9379 28.222 40.8856C30.4876 40.7116 31.6964 39.0682 31.964 38.2815ZM26.7669 39.6039C26.804 39.6474 26.8396 39.691 26.8733 39.7336C27.0172 39.9152 27.1456 40.1028 27.2412 40.2546C27.4167 40.2664 27.733 40.2726 28.1696 40.2367L28.1714 40.2366C29.5568 40.1304 30.4715 39.3859 30.9591 38.7506C29.7658 39.1124 28.4984 39.3505 26.7669 39.6039Z" fill="black"/>
      <path d="M29.4417 41.5886C29.5319 41.5542 29.5981 41.484 29.63 41.4003C29.6574 41.3283 29.6596 41.2463 29.63 41.1686C29.566 41.0006 29.3779 40.9163 29.2099 40.9803C28.8548 41.1156 28.3945 41.2792 27.5698 41.1008C27.394 41.0628 27.2208 41.1744 27.1828 41.3501C27.1448 41.5258 27.2564 41.6991 27.4321 41.7371C28.4272 41.9523 29.0236 41.7479 29.4417 41.5886Z" fill="black"/>
      <path d="M26.9432 32.2842C26.9149 32.1066 26.7481 31.9857 26.5705 32.0139C26.393 32.0422 26.272 32.2091 26.3003 32.3866C26.3436 32.6582 26.3106 33.0054 26.2166 33.3994C26.1235 33.7891 25.9763 34.2021 25.8109 34.5959C25.4799 35.3838 25.1255 35.9099 24.9902 36.1326C24.9152 36.2562 24.8297 36.5674 24.9902 36.7431C25.2474 37.0245 25.5871 37.116 25.9168 37.2165C26.1814 37.2972 26.4678 37.3501 26.7255 37.3977C26.7851 37.4087 26.8432 37.4195 26.8991 37.4302C27.0757 37.4641 27.2463 37.3484 27.2801 37.1719C27.314 36.9953 27.1984 36.8247 27.0218 36.7909C26.9562 36.7783 26.8914 36.7663 26.8276 36.7544C26.5728 36.7072 26.3324 36.6626 26.1066 36.5938C25.926 36.5387 25.773 36.473 25.6484 36.3904C25.8408 36.052 26.1443 35.4833 26.4111 34.848C26.5848 34.4346 26.7458 33.9862 26.8498 33.5505C26.9528 33.119 27.0057 32.6765 26.9432 32.2842Z" fill="black"/>
      <path d="M29.0613 36.7462C29.2407 36.7353 29.3774 36.581 29.3665 36.4016C29.3556 36.2222 29.2013 36.0855 29.0219 36.0964C28.5708 36.1237 28.1034 36.3353 27.7855 36.7431C27.6749 36.8848 27.7003 37.0894 27.842 37.1999C27.9838 37.3104 28.1883 37.2851 28.2989 37.1433C28.4918 36.8959 28.7795 36.7633 29.0613 36.7462Z" fill="black"/>
      <path d="M36.4855 33.0492C36.4709 32.87 36.3137 32.7366 36.1346 32.7513C35.9554 32.7659 35.822 32.923 35.8366 33.1022C35.8837 33.679 35.848 34.0495 35.7394 34.3572C35.6304 34.6663 35.4372 34.9437 35.1086 35.3201C34.9904 35.4555 35.0043 35.6611 35.1397 35.7794C35.2752 35.8976 35.4808 35.8837 35.599 35.7482C35.9431 35.354 36.2025 35.0015 36.3534 34.5737C36.5047 34.1445 36.5362 33.671 36.4855 33.0492Z" fill="black"/>
      <path d="M40.3947 30.9683C40.5517 30.8807 40.6078 30.6824 40.5202 30.5254C40.4325 30.3685 40.2342 30.3123 40.0773 30.4C39.0905 30.951 38.6206 32.0781 38.3979 33.6593C38.3785 33.7969 38.4486 33.9317 38.5725 33.9948C38.6964 34.0578 38.8466 34.0353 38.9465 33.9387C39.0581 33.8307 39.2458 33.6504 39.4717 33.5056C39.7043 33.3565 39.9273 33.2778 40.117 33.3025C40.2953 33.3258 40.4586 33.2001 40.4819 33.0219C40.5051 32.8436 40.3795 32.6802 40.2012 32.657C39.8221 32.6075 39.4693 32.7486 39.1983 32.9094C39.4421 31.8907 39.8306 31.2834 40.3947 30.9683Z" fill="black"/>
      <path fill-rule="evenodd" clip-rule="evenodd" d="M34.5097 15.8909C33.5592 15.8778 32.7871 16.2057 32.3763 16.4631C31.0848 15.7161 30.0049 15.0958 28.1024 15.1378C25.9159 15.186 23.2917 15.864 21.2582 18.6041C20.8175 19.1979 20.5463 19.7196 20.3962 20.1678C20.2521 20.5979 20.2197 20.9603 20.256 21.2538C20.0848 21.5767 19.8949 22.0249 19.7472 22.5714C19.6899 22.7836 19.6387 23.0112 19.5975 23.2524C19.5455 23.5566 19.5093 23.8825 19.4962 24.227C19.4546 25.3227 19.8841 26.3926 20.3142 27.3933C20.3512 27.4794 20.3882 27.565 20.425 27.6502C20.8167 28.5559 21.1859 29.4098 21.2899 30.2653C21.2341 30.4274 21.1884 30.6043 21.1933 30.7741C21.1986 30.9622 21.2617 31.1577 21.3311 31.3295C21.4023 31.506 21.4944 31.6906 21.5788 31.8596L21.5838 31.8695C21.6691 32.0401 21.7462 32.1942 21.8032 32.333C21.8642 32.4814 21.8848 32.5724 21.8848 32.619C21.8848 32.6871 21.8641 32.8036 21.8181 32.98C21.7895 33.0896 21.756 33.2052 21.7197 33.3308C21.6987 33.4032 21.6767 33.4791 21.6542 33.559C21.5383 33.9701 21.4096 34.4768 21.4443 34.9112C21.4985 35.5886 21.7531 36.423 22.1612 37.3857C22.5714 38.3531 23.146 39.4714 23.8578 40.7221C24.1627 41.2578 24.4289 41.793 24.687 42.312C24.7242 42.3867 24.7612 42.4611 24.7981 42.535C25.0889 43.1179 25.3763 43.6798 25.6958 44.1673C26.3408 45.1516 27.1523 45.884 28.4596 45.9121C29.6873 45.9385 30.9202 45.5438 32.1018 44.9944C33.1424 44.5105 34.168 43.8942 35.1331 43.3143C35.2635 43.2359 35.3928 43.1582 35.5209 43.0816C37.2178 42.0665 38.0921 41.2905 38.5759 40.2295C38.8143 39.7067 38.9505 39.131 39.0579 38.4551C39.131 37.9946 39.1927 37.4734 39.2628 36.8813L39.2634 36.8761C39.2864 36.6822 39.3102 36.4807 39.3357 36.2713C39.8443 36.1771 40.4256 35.9083 40.9145 35.3073C41.4868 34.6038 41.9062 33.4777 41.9746 31.7251C42.008 30.8673 41.8727 30.1513 41.5278 29.6594C41.5294 29.6359 41.5326 29.6038 41.5384 29.5615C41.556 29.4331 41.5899 29.2568 41.6348 29.0237C41.7233 28.5647 41.8464 27.9251 41.9302 27.1519C42.0978 25.6049 42.1086 23.5171 41.377 21.2137C39.8865 16.521 35.8681 15.9095 34.5097 15.8909ZM21.9921 25.7023C22.4222 26.5663 22.474 27.3666 22.5352 28.3458C22.5356 28.3526 22.5358 28.3593 22.5358 28.3661C22.5358 28.781 22.4217 29.1773 22.2934 29.5212C22.2288 29.6941 22.1585 29.8594 22.0944 30.0092L22.0882 30.0236C22.0324 30.1543 21.9826 30.2707 21.9418 30.3776C21.9368 30.3907 21.9319 30.4037 21.9271 30.4165C21.8643 30.5866 21.8422 30.6924 21.844 30.7555C21.846 30.8249 21.8731 30.933 21.9348 31.0858C21.9946 31.234 22.0745 31.3952 22.1611 31.5684L22.1714 31.5891C22.2524 31.7508 22.339 31.924 22.4054 32.0855C22.4717 32.2471 22.5358 32.4376 22.5358 32.619C22.5358 32.7791 22.494 32.9679 22.448 33.1442C22.4175 33.2614 22.3796 33.3924 22.3413 33.5246C22.3209 33.5952 22.3003 33.6662 22.2808 33.7356C22.1612 34.1596 22.0692 34.558 22.0933 34.8593C22.1392 35.433 22.362 36.1916 22.7606 37.1316C23.1571 38.0669 23.7184 39.1611 24.4236 40.4001C24.7382 40.9528 25.013 41.5054 25.2705 42.0233C25.3075 42.0977 25.3442 42.1715 25.3806 42.2444C25.6725 42.8295 25.9445 43.3591 26.2403 43.8105C26.8259 44.7042 27.4687 45.2396 28.4736 45.2613C29.5579 45.2846 30.6852 44.9352 31.8273 44.404C32.8343 43.9358 33.8282 43.3387 34.7967 42.7569C34.9272 42.6785 35.0572 42.6004 35.1867 42.5229C36.8562 41.5242 37.585 40.8334 37.9836 39.9594C38.1864 39.5146 38.3112 39.0056 38.4149 38.3529C38.48 37.9434 38.5352 37.4892 38.597 36.9673C38.6027 36.9191 38.6085 36.8704 38.6144 36.821C38.6339 36.6556 38.6543 36.4836 38.6759 36.3042C38.5062 36.281 38.3821 36.129 38.3957 35.9561C38.4099 35.7769 38.5666 35.643 38.7458 35.6572C38.8278 35.6636 38.9197 35.6646 39.0186 35.6571C39.4307 35.6257 39.961 35.4478 40.4095 34.8964C40.863 34.3389 41.259 33.3674 41.3241 31.6997C41.3568 30.8609 41.2066 30.303 40.9618 29.9886C40.8137 29.7983 40.6225 29.6848 40.3773 29.648C39.8133 29.6602 39.2768 30.1622 38.8448 31.0518C38.4207 31.9252 38.1631 33.049 38.1091 34.0086C38.0994 34.181 37.9568 34.3159 37.7841 34.3159H36.957C36.7773 34.3159 36.6315 34.1701 36.6315 33.9904V32.3959C36.6315 31.1629 36.2122 29.9913 35.8893 29.5015C35.5169 28.9366 35.005 28.4184 34.4976 27.9115L34.4377 27.8517C33.9649 27.3798 33.4858 26.9016 33.2061 26.4305C32.9013 25.9171 32.8126 25.337 32.7643 24.8245C32.7515 24.6879 32.7414 24.5584 32.7318 24.4355C32.7034 24.07 32.6795 23.7629 32.6003 23.5C32.4733 23.0789 32.064 22.4202 31.3636 22.0894C31.4724 22.2991 31.5793 22.533 31.6733 22.783C31.8842 23.3436 31.8772 24.3327 31.556 24.9618C31.4623 24.326 31.2869 23.6897 30.9823 23.2267C30.6434 22.7115 29.9947 22.236 28.768 22.157C28.7642 22.1568 28.7604 22.1565 28.7565 22.1561C27.9949 22.0799 27.6419 22.5609 27.5632 22.7706C27.5278 22.865 27.4506 22.9377 27.3542 22.9674C27.2579 22.9971 27.1532 22.9804 27.0708 22.9222C27.0033 22.8746 26.8475 22.7783 26.6649 22.6928C26.4756 22.6043 26.2959 22.5458 26.1691 22.54C25.6502 22.5162 25.1607 22.9061 24.7097 23.4738C24.4929 23.7467 24.3038 24.0365 24.1406 24.2919L24.0883 24.3739C23.9542 24.5846 23.8225 24.7916 23.715 24.908C23.3742 25.2768 22.9339 25.4984 22.5124 25.612C22.3377 25.6592 22.1617 25.6889 21.9921 25.7023ZM41.5274 29.7039C41.5274 29.7039 41.527 29.702 41.5268 29.6972C41.5274 29.7014 41.5274 29.7039 41.5274 29.7039Z" fill="black"/>
      <path fill-rule="evenodd" clip-rule="evenodd" d="M21.9418 30.3776C21.9368 30.3907 21.9319 30.4037 21.9271 30.4165C21.8643 30.5866 21.8422 30.6924 21.844 30.7555C22.8865 30.9102 22.8806 30.7741 23.773 30.7741C22.9566 31.1609 23.1085 32.6118 23.4407 33.1442C23.773 33.6767 24.0799 34.1039 24.7224 34.0185C25.3649 33.933 25.9503 33.2305 25.8806 32.4805C25.8109 31.7305 25.5679 31.2436 25.259 30.9995C25.4694 31.0492 25.9166 30.9954 25.947 30.8382C25.985 30.6416 25.8609 30.0122 23.8395 29.8888C22.9919 29.8389 22.2567 30.1725 21.9418 30.3776ZM24.5887 31.6672C24.5005 31.5437 24.5218 31.3206 24.8482 31.3206C25.1078 31.3206 25.259 31.5891 25.3649 31.6672C25.4707 31.7453 25.5148 32.1612 25.259 32.2842C25.0032 32.4072 24.6769 31.7907 24.5887 31.6672Z" fill="black"/>
      <path fill-rule="evenodd" clip-rule="evenodd" d="M31.5165 29.6246C30.2362 29.632 30.2954 30.7939 30.2954 31.2084C30.2954 31.6228 30.6062 33.2222 31.746 33.1622C32.8857 33.1022 33.0707 31.8597 33.0559 31.4896C33.0411 31.1196 32.7895 29.6246 31.5165 29.6246ZM31.6244 30.3351C31.5362 30.2116 31.5575 29.9886 31.8839 29.9886C32.1435 29.9886 32.2947 30.257 32.4006 30.3351C32.5064 30.4132 32.5505 30.8291 32.2947 30.9521C32.0389 31.0751 31.7126 30.4586 31.6244 30.3351Z" fill="black"/>
      <path d="M31.8839 28.3458C30.1284 28.3458 29.1877 29.1141 28.7433 29.5015C28.2989 29.8888 28.2074 30.0405 28.398 30.3351C28.5886 30.6297 28.9937 30.5633 29.22 30.4C29.4464 30.2366 31.2452 29.1526 32.7581 29.2002C33.4998 29.2475 34.099 29.4712 34.2029 29.4393C34.3068 29.4073 34.4666 29.2315 34.2029 29.0397C33.9392 28.848 33.2244 28.3458 31.8839 28.3458Z" fill="black"/>
      <path fill-rule="evenodd" clip-rule="evenodd" d="M25.2705 42.0233C25.3075 42.0977 25.3442 42.1715 25.3806 42.2444C25.6725 42.8295 25.9445 43.3591 26.2403 43.8105C26.8259 44.7042 27.4687 45.2396 28.4736 45.2613C29.5579 45.2846 30.6852 44.9352 31.8273 44.404C32.8343 43.9358 33.8282 43.3387 34.7967 42.7569C34.9272 42.6785 35.0572 42.6004 35.1867 42.5229C36.8562 41.5242 37.585 40.8334 37.9836 39.9594C38.1864 39.5146 38.3112 39.0056 38.4149 38.3529C38.48 37.9434 38.5352 37.4892 38.597 36.9673C38.3704 38.4932 36.642 40.8856 34.7967 40.8856C34.0663 40.8856 33.0963 37.6154 32.3265 37.2165C31.5566 36.8177 30.3969 37.3133 29.8024 37.3977C29.208 37.4822 28.2989 37.4692 27.6487 37.4887C26.9985 37.5082 26.6157 37.8705 26.1479 37.9954C25.6801 38.1204 24.9687 37.9444 24.6374 38.4827C24.306 39.021 24.6276 40.2546 25.2705 42.0233ZM29.4417 41.5886C29.0236 41.7479 28.4272 41.9523 27.4321 41.7371C27.788 42.0878 27.7305 43.2693 27.1828 43.2979C26.6351 43.3265 25.8728 42.5229 25.444 40.8856C25.0166 39.2535 25.1004 39.1347 25.2142 38.9735L25.2153 38.972C25.444 38.648 26.658 38.8263 27.7855 38.5853C28.9373 38.3443 30.8306 37.872 31.3571 37.7821C32.1804 37.6415 32.7427 39.12 32.7829 41.1008C32.8231 43.0816 31.5077 42.6603 30.8149 42.2444C30.1221 41.8285 29.63 41.6321 29.63 41.4003C29.5981 41.484 29.5319 41.5542 29.4417 41.5886Z" fill="black" fill-opacity="0.15"/>
    </g>
    <path fill-rule="evenodd" clip-rule="evenodd" d="M12.8044 12.2761C12.1504 13.5595 12.1504 15.2397 12.1504 18.6V41.4C12.1504 44.7603 12.1504 46.4405 12.8044 47.7239C13.3796 48.8529 14.2975 49.7708 15.4264 50.346C16.7099 51 18.3901 51 21.7504 51H38.2504C41.6107 51 43.2909 51 44.5743 50.346C45.7033 49.7708 46.6212 48.8529 47.1964 47.7239C47.8504 46.4405 47.8504 44.7603 47.8504 41.4V18.6C47.8504 15.2397 47.8504 13.5595 47.1964 12.2761C46.6212 11.1471 45.7033 10.2292 44.5743 9.65396C43.2909 9 41.6107 9 38.2504 9H21.7504C18.3901 9 16.7099 9 15.4264 9.65396C14.2975 10.2292 13.3796 11.1471 12.8044 12.2761ZM32.3768 16.463C32.7875 16.2056 33.5596 15.8778 34.5102 15.8908C35.8685 15.9094 39.8869 16.5209 41.3774 21.2136C42.1091 23.517 42.0982 25.6048 41.9306 27.1518C41.8469 27.925 41.7237 28.5646 41.6353 29.0236C41.5903 29.2567 41.5564 29.433 41.5389 29.5614C41.5331 29.6037 41.5298 29.6358 41.5283 29.6593C41.8732 30.1512 42.0085 30.8672 41.975 31.725C41.9066 33.4776 41.4872 34.6037 40.915 35.3072C40.426 35.9082 39.8448 36.177 39.3362 36.2712C39.3107 36.4807 39.2868 36.6821 39.2639 36.876L39.2633 36.8812L39.2633 36.8813L39.2633 36.8814L39.2633 36.8814L39.2632 36.8816L39.2632 36.882C39.1931 37.4738 39.1315 37.9947 39.0583 38.455C38.9509 39.1309 38.8148 39.7066 38.5764 40.2294C38.0926 41.2904 37.2183 42.0664 35.5214 43.0815C35.3933 43.1581 35.2639 43.2358 35.1335 43.3142L35.1334 43.3143L35.1333 43.3143C34.1683 43.8942 33.1428 44.5104 32.1023 44.9943C30.9206 45.5437 29.6878 45.9384 28.46 45.912C27.1528 45.8839 26.3412 45.1515 25.6962 44.1672C25.3767 43.6797 25.0893 43.1178 24.7985 42.535L24.6875 42.3119L24.6874 42.3118C24.4294 41.7929 24.1631 41.2576 23.8583 40.722C23.1464 39.4713 22.5718 38.353 22.1617 37.3856C21.7535 36.423 21.499 35.5885 21.4448 34.9112C21.41 34.4767 21.5387 33.97 21.6546 33.5589C21.6771 33.4792 21.699 33.4036 21.7199 33.3313L21.72 33.3312L21.7201 33.3307C21.7565 33.2051 21.7899 33.0895 21.8185 32.9799C21.8645 32.8035 21.8852 32.687 21.8852 32.6189C21.8852 32.5723 21.8647 32.4813 21.8037 32.3329C21.7466 32.1941 21.6696 32.04 21.5843 31.8695L21.5843 31.8695L21.5843 31.8694L21.5793 31.8595C21.4948 31.6905 21.4028 31.5059 21.3315 31.3294C21.2622 31.1576 21.1991 30.9621 21.1937 30.774C21.1889 30.6042 21.2345 30.4273 21.2903 30.2652C21.1864 29.4097 20.8171 28.5559 20.4255 27.6501L20.4252 27.6494C20.3885 27.5645 20.3516 27.4791 20.3146 27.3932C19.8845 26.3925 19.4551 25.3226 19.4967 24.2269C19.5097 23.8824 19.546 23.5565 19.598 23.2523C19.0711 23.6999 18.2972 23.7245 17.976 23.6809C19.0393 23.2857 19.5047 22.2082 20.0251 21.0034L20.0251 21.0034L20.0252 21.0034L20.0252 21.0032L20.0252 21.0032C20.1436 20.7291 20.2649 20.4484 20.3966 20.1677C20.5467 19.7195 20.8179 19.1978 21.2586 18.604C23.2922 15.8639 25.9164 15.1859 28.1029 15.1377C30.0054 15.0957 31.0853 15.716 32.3768 16.463ZM22.5356 28.3457C22.4744 27.3665 22.4227 26.5662 21.9926 25.7022C22.1622 25.6888 22.3381 25.6591 22.5129 25.6119C22.9344 25.4983 23.3747 25.2767 23.7154 24.9079C23.8229 24.7915 23.9547 24.5845 24.0888 24.3738L24.141 24.2918C24.3043 24.0364 24.4934 23.7466 24.7101 23.4737C25.1611 22.906 25.6506 22.5161 26.1696 22.5399C26.2964 22.5457 26.4761 22.6042 26.6654 22.6928C26.8479 22.7782 27.0038 22.8745 27.0712 22.9221C27.1536 22.9803 27.2583 22.997 27.3547 22.9673C27.4511 22.9376 27.5283 22.8649 27.5637 22.7705C27.6423 22.5608 27.9953 22.0798 28.757 22.156L28.7685 22.1569C29.9952 22.2359 30.6438 22.7114 30.9827 23.2266C31.2873 23.6896 31.4628 24.3259 31.5565 24.9617C31.8777 24.3326 31.8847 23.3435 31.6738 22.7829C31.5797 22.533 31.4728 22.299 31.3641 22.0893C32.0645 22.4201 32.4738 23.0788 32.6007 23.4999C32.6799 23.7628 32.7038 24.0699 32.7323 24.4354V24.4355C32.7418 24.5583 32.7519 24.6878 32.7648 24.8244C32.813 25.3369 32.9018 25.917 33.2065 26.4304C33.4863 26.9015 33.9653 27.3797 34.4381 27.8516L34.4381 27.8516L34.498 27.9114C35.0055 28.4183 35.5173 28.9365 35.8898 29.5014C36.2127 29.9912 36.632 31.1628 36.632 32.3958V33.9903C36.632 34.17 36.7777 34.3158 36.9575 34.3158H37.7846C37.9572 34.3158 38.0999 34.181 38.1096 34.0086C38.1635 33.0489 38.4212 31.9251 38.8453 31.0517C39.2772 30.1621 39.8138 29.6601 40.3777 29.6479C40.6229 29.6847 40.8142 29.7982 40.9623 29.9885C41.207 30.3029 41.3572 30.8608 41.3245 31.6996C41.2594 33.3673 40.8635 34.3388 40.4099 34.8963C39.9614 35.4477 39.4311 35.6257 39.0191 35.657C38.9202 35.6646 38.8282 35.6636 38.7463 35.6571C38.5671 35.643 38.4103 35.7768 38.3962 35.956C38.3825 36.1289 38.5067 36.2809 38.6764 36.3041C38.6549 36.4825 38.6346 36.6537 38.6151 36.8182L38.6149 36.8198L38.6148 36.8209L38.5975 36.9672C38.3708 38.4932 36.6424 40.8855 34.7971 40.8855C34.4098 40.8855 33.955 39.9656 33.4985 39.0421C33.0942 38.2244 32.6885 37.4037 32.3269 37.2164C31.7506 36.9179 30.9558 37.1205 30.3432 37.2767C30.1375 37.3292 29.9523 37.3764 29.8029 37.3976C29.3646 37.4599 28.7553 37.4692 28.2048 37.4776H28.2047C28.0086 37.4806 27.8199 37.4835 27.6492 37.4886C27.24 37.5009 26.9367 37.6489 26.6515 37.7881C26.4835 37.8701 26.3218 37.949 26.1484 37.9953C26.008 38.0328 25.8458 38.0432 25.6784 38.054C25.288 38.079 24.8698 38.1058 24.6378 38.4826C24.3065 39.0209 24.6281 40.2545 25.271 42.0232L25.2709 42.023C25.0134 41.5052 24.7386 40.9526 24.4241 40.4C23.7189 39.161 23.1576 38.0669 22.761 37.1315C22.3625 36.1915 22.1396 35.4329 22.0937 34.8592C22.0696 34.5579 22.1617 34.1595 22.2812 33.7355C22.3008 33.6662 22.3213 33.5952 22.3418 33.5245L22.3418 33.5244C22.38 33.3923 22.4179 33.2613 22.4485 33.1442C22.4944 32.9678 22.5362 32.779 22.5362 32.6189C22.5362 32.4375 22.4722 32.247 22.4058 32.0855C22.3394 31.9239 22.2528 31.7507 22.1719 31.589L22.1616 31.5683C22.075 31.3951 21.995 31.2339 21.9352 31.0857C21.8735 30.9329 21.8464 30.8248 21.8445 30.7554C22.5128 30.8546 22.7502 30.8343 23.0698 30.8069C23.2486 30.7915 23.4532 30.774 23.7735 30.774C22.957 31.1608 23.1089 32.6117 23.4412 33.1442C23.7735 33.6766 24.0803 34.1038 24.7228 34.0184C25.3653 33.9329 25.9507 33.2304 25.881 32.4804C25.8113 31.7304 25.5683 31.2435 25.2595 30.9994C25.4698 31.0492 25.9171 30.9953 25.9475 30.8381C25.9855 30.6415 25.8613 30.0121 23.8399 29.8887C22.9923 29.8389 22.2572 30.1725 21.9422 30.3775C21.9831 30.2706 22.0328 30.1543 22.0887 30.0236L22.0949 30.0091C22.1589 29.8593 22.2293 29.694 22.2938 29.5211C22.4221 29.1773 22.5362 28.7809 22.5362 28.366C22.5362 28.3592 22.536 28.3525 22.5356 28.3457ZM41.5273 29.6971C41.5275 29.7019 41.5279 29.7038 41.5279 29.7038L41.5278 29.702L41.5273 29.6971ZM31.8844 37.9444C31.9736 38.032 32.0047 38.163 31.9645 38.2814C31.6968 39.0681 30.4881 40.7115 28.2225 40.8855C27.5859 40.9378 27.1528 40.9094 26.9921 40.8819C26.8971 40.8656 26.8142 40.808 26.7657 40.7246C26.6838 40.5837 26.5354 40.3547 26.3635 40.1378C26.1843 39.9116 26.0093 39.7371 25.8778 39.664C25.7554 39.596 25.6902 39.4575 25.7158 39.3199C25.7415 39.1823 25.8522 39.0765 25.9908 39.0571C28.4997 38.7063 30.0149 38.4224 31.5459 37.8704C31.6636 37.828 31.7951 37.8567 31.8844 37.9444ZM26.8738 39.7335C26.84 39.6909 26.8044 39.6474 26.7673 39.6038C28.4988 39.3504 29.7663 39.1123 30.9595 38.7505C30.4719 39.3858 29.5572 40.1303 28.1719 40.2365L28.1701 40.2366C27.7334 40.2725 27.4172 40.2663 27.2417 40.2545C27.146 40.1027 27.0176 39.9151 26.8738 39.7335ZM29.6304 41.4002C29.6579 41.3282 29.66 41.2462 29.6304 41.1685C29.5664 41.0005 29.3784 40.9162 29.2104 40.9802C28.8552 41.1155 28.395 41.2791 27.5702 41.1007C27.3945 41.0627 27.2212 41.1743 27.1832 41.35C27.1452 41.5257 27.2568 41.699 27.4326 41.737C27.7885 42.0877 27.731 43.2692 27.1832 43.2978C26.6355 43.3264 25.8732 42.5228 25.4445 40.8855C25.017 39.2534 25.1009 39.1346 25.2147 38.9734L25.2158 38.9719C25.3452 38.7886 25.79 38.7661 26.3561 38.7374H26.3562C26.7906 38.7155 27.2964 38.6899 27.7859 38.5852C28.3377 38.4698 29.0596 38.3013 29.7199 38.1471L29.72 38.1471C30.438 37.9794 31.0833 37.8288 31.3576 37.782C32.1809 37.6414 32.7432 39.1199 32.7833 41.1007C32.8235 43.0815 31.5082 42.6603 30.8154 42.2443C30.6385 42.1381 30.4746 42.0462 30.3288 41.9644L30.3282 41.9641L30.3281 41.964C29.903 41.7256 29.6304 41.5727 29.6304 41.4002ZM26.571 32.0138C26.7485 31.9856 26.9154 32.1066 26.9436 32.2841C27.0061 32.6764 26.9532 33.1189 26.8502 33.5504C26.7462 33.9862 26.5852 34.4345 26.4115 34.8479C26.1447 35.4832 25.8413 36.0519 25.6488 36.3903C25.7735 36.4729 25.9264 36.5387 26.1071 36.5937C26.3329 36.6625 26.5732 36.7071 26.8281 36.7543C26.8919 36.7662 26.9566 36.7782 27.0223 36.7908C27.1988 36.8246 27.3145 36.9952 27.2806 37.1718C27.2467 37.3483 27.0761 37.464 26.8996 37.4301C26.8441 37.4195 26.7864 37.4088 26.7272 37.3979L26.7272 37.3979L26.7259 37.3976C26.4683 37.35 26.1819 37.2971 25.9173 37.2164L25.8649 37.2005C25.5519 37.1057 25.2342 37.0096 24.9907 36.743C24.8301 36.5673 24.9156 36.2561 24.9907 36.1325C25.009 36.1023 25.0314 36.0666 25.0572 36.0253C25.2217 35.7623 25.5253 35.2769 25.8113 34.5958C25.9767 34.202 26.124 33.789 26.217 33.3993C26.3111 33.0053 26.344 32.6581 26.3007 32.3865C26.2725 32.209 26.3935 32.0421 26.571 32.0138ZM29.0617 36.7461C29.2412 36.7352 29.3778 36.5809 29.367 36.4015C29.3561 36.2221 29.2018 36.0854 29.0224 36.0963C28.5712 36.1236 28.1039 36.3352 27.7859 36.743C27.6754 36.8847 27.7007 37.0893 27.8425 37.1998C27.9843 37.3103 28.1888 37.285 28.2993 37.1433C28.4922 36.8959 28.78 36.7632 29.0617 36.7461ZM36.135 32.7512C36.3142 32.7366 36.4713 32.8699 36.4859 33.0491C36.5367 33.6709 36.5052 34.1444 36.3538 34.5736C36.2029 35.0014 35.9436 35.354 35.5995 35.7481C35.4812 35.8836 35.2756 35.8975 35.1402 35.7793C35.0048 35.661 34.9908 35.4554 35.109 35.32C35.4376 34.9436 35.6308 34.6663 35.7399 34.3571C35.8484 34.0494 35.8842 33.6789 35.8371 33.1021C35.8225 32.9229 35.9559 32.7658 36.135 32.7512ZM40.3952 30.9682C40.5521 30.8806 40.6083 30.6823 40.5206 30.5253C40.433 30.3684 40.2347 30.3122 40.0777 30.3999C39.091 30.9509 38.621 32.078 38.3983 33.6592C38.379 33.7968 38.4491 33.9316 38.573 33.9947C38.6968 34.0577 38.8471 34.0352 38.947 33.9386C39.0585 33.8307 39.2462 33.6503 39.4722 33.5055C39.7048 33.3564 39.9278 33.2777 40.1175 33.3024C40.2957 33.3257 40.4591 33.2 40.4823 33.0218C40.5056 32.8435 40.3799 32.6801 40.2017 32.6569C39.8225 32.6074 39.4698 32.7485 39.1988 32.9093C39.4425 31.8906 39.8311 31.2833 40.3952 30.9682ZM24.5891 31.6671C24.5009 31.5436 24.5223 31.3206 24.8487 31.3206C25.039 31.3206 25.1711 31.4649 25.2698 31.5727C25.3056 31.6119 25.3371 31.6463 25.3653 31.6671C25.4712 31.7453 25.5153 32.1611 25.2595 32.2841C25.0428 32.3883 24.7754 31.9617 24.6451 31.7538L24.6451 31.7538C24.6216 31.7163 24.6026 31.686 24.5891 31.6671ZM30.2956 31.1554C30.2933 30.7032 30.2876 29.6316 31.517 29.6245C32.7899 29.6245 33.0416 31.1195 33.0564 31.4895C33.0712 31.8596 32.8861 33.1021 31.7464 33.1621C30.6067 33.2221 30.2958 31.6227 30.2958 31.2083L30.2956 31.1554ZM31.8844 29.9885C31.558 29.9885 31.5366 30.2115 31.6248 30.335C31.6383 30.3539 31.6573 30.3842 31.6808 30.4217C31.8111 30.6296 32.0784 31.0562 32.2952 30.952C32.551 30.829 32.5069 30.4132 32.401 30.335C32.3728 30.3142 32.3413 30.2798 32.3054 30.2406C32.2068 30.1328 32.0747 29.9885 31.8844 29.9885ZM31.8844 28.3457C30.1289 28.3457 29.1882 29.1141 28.7438 29.5014C28.2993 29.8887 28.2079 30.0404 28.3985 30.335C28.5891 30.6296 28.9941 30.5632 29.2205 30.3999C29.4468 30.2365 31.2456 29.1525 32.7585 29.2001C33.203 29.2285 33.5963 29.3201 33.8625 29.3822L33.8626 29.3822C34.0406 29.4237 34.1617 29.452 34.2034 29.4392C34.3072 29.4072 34.467 29.2314 34.2034 29.0397C33.9397 28.8479 33.2248 28.3457 31.8844 28.3457Z" fill="url(#paint1_radial_3029_38042)"/>
    <path fill-rule="evenodd" clip-rule="evenodd" d="M-25 -27.6C-25 -29.8402 -25 -30.9603 -24.564 -31.816C-24.1805 -32.5686 -23.5686 -33.1805 -22.816 -33.564C-21.9603 -34 -20.8402 -34 -18.6 -34H2.6C4.84021 -34 5.96032 -34 6.81596 -33.564C7.56861 -33.1805 8.18053 -32.5686 8.56403 -31.816C9 -30.9603 9 -29.8402 9 -27.6V-0.400002C9 1.84021 9 2.96032 8.56403 3.81596C8.18053 4.56861 7.56861 5.18053 6.81596 5.56403C5.96032 6 4.84021 6 2.6 6H-18.6C-20.8402 6 -21.9603 6 -22.816 5.56403C-23.5686 5.18053 -24.1805 4.56861 -24.564 3.81596C-25 2.96032 -25 1.84021 -25 -0.400002V-27.6ZM-24.564 12.184C-25 13.0397 -25 14.1598 -25 16.4V43.6C-25 45.8402 -25 46.9603 -24.564 47.816C-24.1805 48.5686 -23.5686 49.1805 -22.816 49.564C-21.9603 50 -20.8402 50 -18.6 50H2.6C4.84021 50 5.96032 50 6.81596 49.564C7.56861 49.1805 8.18053 48.5686 8.56403 47.816C9 46.9603 9 45.8402 9 43.6V16.4C9 14.1598 9 13.0397 8.56403 12.184C8.18053 11.4314 7.56861 10.8195 6.81596 10.436C5.96032 10 4.84021 10 2.6 10H-18.6C-20.8402 10 -21.9603 10 -22.816 10.436C-23.5686 10.8195 -24.1805 11.4314 -24.564 12.184ZM-24.564 56.184C-25 57.0397 -25 58.1598 -25 60.4V87.6C-25 89.8402 -25 90.9603 -24.564 91.816C-24.1805 92.5686 -23.5686 93.1805 -22.816 93.564C-21.9603 94 -20.8402 94 -18.6 94H2.6C4.84021 94 5.96032 94 6.81596 93.564C7.56861 93.1805 8.18053 92.5686 8.56403 91.816C9 90.9603 9 89.8402 9 87.6V60.4C9 58.1598 9 57.0397 8.56403 56.184C8.18053 55.4314 7.56861 54.8195 6.81596 54.436C5.96032 54 4.84021 54 2.6 54H-18.6C-20.8402 54 -21.9603 54 -22.816 54.436C-23.5686 54.8195 -24.1805 55.4314 -24.564 56.184ZM51.436 12.184C51 13.0397 51 14.1598 51 16.4V43.6C51 45.8402 51 46.9603 51.436 47.816C51.8195 48.5686 52.4314 49.1805 53.184 49.564C54.0397 50 55.1598 50 57.4 50H78.6C80.8402 50 81.9603 50 82.816 49.564C83.5686 49.1805 84.1805 48.5686 84.564 47.816C85 46.9603 85 45.8402 85 43.6V16.4C85 14.1598 85 13.0397 84.564 12.184C84.1805 11.4314 83.5686 10.8195 82.816 10.436C81.9603 10 80.8402 10 78.6 10H57.4C55.1598 10 54.0397 10 53.184 10.436C52.4314 10.8195 51.8195 11.4314 51.436 12.184ZM51 60.4C51 58.1598 51 57.0397 51.436 56.184C51.8195 55.4314 52.4314 54.8195 53.184 54.436C54.0397 54 55.1598 54 57.4 54H78.6C80.8402 54 81.9603 54 82.816 54.436C83.5686 54.8195 84.1805 55.4314 84.564 56.184C85 57.0397 85 58.1598 85 60.4V87.6C85 89.8402 85 90.9603 84.564 91.816C84.1805 92.5686 83.5686 93.1805 82.816 93.564C81.9603 94 80.8402 94 78.6 94H57.4C55.1598 94 54.0397 94 53.184 93.564C52.4314 93.1805 51.8195 92.5686 51.436 91.816C51 90.9603 51 89.8402 51 87.6V60.4ZM13.436 56.184C13 57.0397 13 58.1598 13 60.4V87.6C13 89.8402 13 90.9603 13.436 91.816C13.8195 92.5686 14.4314 93.1805 15.184 93.564C16.0397 94 17.1598 94 19.4 94H40.6C42.8402 94 43.9603 94 44.816 93.564C45.5686 93.1805 46.1805 92.5686 46.564 91.816C47 90.9603 47 89.8402 47 87.6V60.4C47 58.1598 47 57.0397 46.564 56.184C46.1805 55.4314 45.5686 54.8195 44.816 54.436C43.9603 54 42.8402 54 40.6 54H19.4C17.1598 54 16.0397 54 15.184 54.436C14.4314 54.8195 13.8195 55.4314 13.436 56.184ZM51 -27.6C51 -29.8402 51 -30.9603 51.436 -31.816C51.8195 -32.5686 52.4314 -33.1805 53.184 -33.564C54.0397 -34 55.1598 -34 57.4 -34H78.6C80.8402 -34 81.9603 -34 82.816 -33.564C83.5686 -33.1805 84.1805 -32.5686 84.564 -31.816C85 -30.9603 85 -29.8402 85 -27.6V-0.400002C85 1.84021 85 2.96032 84.564 3.81596C84.1805 4.56861 83.5686 5.18053 82.816 5.56403C81.9603 6 80.8402 6 78.6 6H57.4C55.1598 6 54.0397 6 53.184 5.56403C52.4314 5.18053 51.8195 4.56861 51.436 3.81596C51 2.96032 51 1.84021 51 -0.400002V-27.6ZM13.436 -31.816C13 -30.9603 13 -29.8402 13 -27.6V-0.400002C13 1.84021 13 2.96032 13.436 3.81596C13.8195 4.56861 14.4314 5.18053 15.184 5.56403C16.0397 6 17.1598 6 19.4 6H40.6C42.8402 6 43.9603 6 44.816 5.56403C45.5686 5.18053 46.1805 4.56861 46.564 3.81596C47 2.96032 47 1.84021 47 -0.400002V-27.6C47 -29.8402 47 -30.9603 46.564 -31.816C46.1805 -32.5686 45.5686 -33.1805 44.816 -33.564C43.9603 -34 42.8402 -34 40.6 -34H19.4C17.1598 -34 16.0397 -34 15.184 -33.564C14.4314 -33.1805 13.8195 -32.5686 13.436 -31.816Z" fill="url(#paint2_radial_3029_38042)" fill-opacity="0.9"/>
  </g>
  <defs>
    <linearGradient id="paint0_linear_3029_38042" x1="30" y1="0" x2="30" y2="60" gradientUnits="userSpaceOnUse">
      <stop stop-color="#A0DE7E"/>
      <stop offset="1" stop-color="#54CB68"/>
    </linearGradient>
    <radialGradient id="paint1_radial_3029_38042" cx="0" cy="0" r="1" gradientUnits="userSpaceOnUse" gradientTransform="translate(30.0004 30) rotate(90) scale(21 17.85)">
      <stop stop-color="white"/>
      <stop offset="1" stop-color="white" stop-opacity="0.8"/>
    </radialGradient>
    <radialGradient id="paint2_radial_3029_38042" cx="0" cy="0" r="1" gradientUnits="userSpaceOnUse" gradientTransform="translate(30 30) rotate(-90) scale(52 44.2)">
      <stop offset="0.5" stop-color="white" stop-opacity="0.2"/>
      <stop offset="1" stop-color="white"/>
    </radialGradient>
    <clipPath id="clip0_3029_38042">
      <rect width="60" height="60" rx="14" fill="white"/>
    </clipPath>
  </defs>
</svg>