<svg width="60" height="60" viewBox="0 0 60 60" fill="none" xmlns="http://www.w3.org/2000/svg">
<g clip-path="url(#clip0_1995_71582)">
<path d="M60 0H0V60H60V0Z" fill="url(#paint0_linear_1995_71582)"/>
<path d="M42.4137 7.44824H17.5861C15.2249 7.44824 13.069 8.82787 11.4277 12.4655H48.5722C46.9307 8.82787 44.7748 7.44824 42.4137 7.44824Z" fill="url(#paint1_radial_1995_71582)" fill-opacity="0.8"/>
<path d="M17.5861 52.5519H42.4137C44.7748 52.5519 46.9307 51.1723 48.5722 47.5347H11.4277C13.069 51.1723 15.2249 52.5519 17.5861 52.5519Z" fill="url(#paint2_radial_1995_71582)" fill-opacity="0.8"/>
<path d="M7.74727 44.3325C8.05265 45.3193 8.20534 45.8126 8.60763 46.3087C8.92786 46.7039 9.47535 47.1078 9.94732 47.2969C10.5402 47.5344 11.1488 47.5344 12.366 47.5344H47.6341C48.8511 47.5344 49.4598 47.5344 50.0528 47.2969C50.5245 47.1078 51.0724 46.7039 51.3922 46.3087C51.7948 45.8126 51.9475 45.3193 52.2529 44.3325C52.5119 43.4949 52.7486 42.6123 52.9613 41.6896C53.378 39.8805 53.7012 37.9183 53.9135 35.8447H6.08643C6.29895 37.9183 6.62192 39.8805 7.03865 41.6896C7.25121 42.6123 7.48815 43.4949 7.74727 44.3325Z" fill="url(#paint3_radial_1995_71582)"/>
<path d="M52.2529 15.6673C51.9475 14.6804 51.7948 14.187 51.3922 13.6908C51.0724 13.2959 50.5245 12.8922 50.0528 12.703C49.4598 12.4653 48.8511 12.4653 47.6341 12.4653H12.366C11.1488 12.4653 10.5402 12.4653 9.94732 12.703C9.47535 12.8922 8.92786 13.2959 8.60763 13.6908C8.20534 14.187 8.05265 14.6804 7.74727 15.6673C7.48815 16.5047 7.25121 17.3875 7.03865 18.3102C6.62192 20.1192 6.29895 22.0814 6.08643 24.155H53.9135C53.7012 22.0814 53.378 20.1192 52.9613 18.3102C52.7486 17.3875 52.5119 16.5047 52.2529 15.6673Z" fill="url(#paint4_radial_1995_71582)"/>
<path d="M6.08643 35.8449H53.9135V24.1553H6.08643V35.8449Z" fill="url(#paint5_radial_1995_71582)"/>
<path d="M3.31055 29.9998C3.31055 28.9531 3.32134 27.9166 3.34251 26.8918C3.3856 24.8054 3.40715 23.7622 3.86458 22.8957C4.25557 22.155 4.91966 21.5045 5.66826 21.1289C6.54409 20.6895 7.63349 20.6895 9.81223 20.6895H50.1883C52.367 20.6895 53.4565 20.6895 54.3321 21.1289C55.0806 21.5045 55.7448 22.155 56.1358 22.8957C56.5934 23.7622 56.615 24.8054 56.658 26.8918C56.6791 27.9166 56.6899 28.9531 56.6899 29.9998C56.6899 31.0464 56.6791 32.083 56.658 33.1078C56.615 35.1942 56.5934 36.2374 56.1358 37.1039C55.7448 37.8446 55.0806 38.4951 54.3321 38.8707C53.4565 39.3101 52.367 39.3101 50.1883 39.3101H9.81223C7.63349 39.3101 6.54409 39.3101 5.66826 38.8707C4.91966 38.4951 4.25557 37.8446 3.86458 37.1039C3.40715 36.2374 3.3856 35.1942 3.34251 33.1078C3.32134 32.083 3.31055 31.0464 3.31055 29.9998Z" fill="url(#paint6_radial_1995_71582)"/>
<mask id="mask0_1995_71582" style="mask-type:luminance" maskUnits="userSpaceOnUse" x="6" y="21" width="18" height="18">
<path d="M23.1723 21.7241H6.62061V38.2758H23.1723V21.7241Z" fill="white"/>
</mask>
<g mask="url(#mask0_1995_71582)">
<mask id="mask1_1995_71582" style="mask-type:luminance" maskUnits="userSpaceOnUse" x="7" y="22" width="16" height="16">
<path d="M7.54053 22.644H22.2532V37.3567H7.54053V22.644Z" fill="white"/>
</mask>
<g mask="url(#mask1_1995_71582)">
<path opacity="0.6" d="M13.0017 27.2007L14.3233 24.568C14.476 24.2644 14.8457 24.1426 15.1471 24.2954C15.2648 24.3553 15.3598 24.4523 15.4197 24.5721L16.6689 27.1119C16.7701 27.3205 16.9704 27.4609 17.1996 27.4877L19.8117 27.8016C20.1668 27.8449 20.4208 28.1691 20.3795 28.5264C20.361 28.673 20.2949 28.8092 20.1896 28.9125L18.1226 30.9505C18.038 31.0331 17.9987 31.1487 18.0132 31.2665L18.358 34.0169C18.4076 34.4113 18.1288 34.7706 17.7365 34.8201C17.5878 34.8387 17.4392 34.8118 17.307 34.7396L15.1244 33.5461C14.9654 33.4594 14.7755 33.4573 14.6165 33.5399L12.3534 34.7003C12.0354 34.8635 11.6472 34.7355 11.484 34.4154C11.4221 34.2956 11.4014 34.1614 11.42 34.0293L11.5997 32.7656C11.6885 32.1481 12.0704 31.6113 12.6239 31.3284L15.1347 30.0461C15.2008 30.0131 15.2276 29.9305 15.1946 29.8623C15.1678 29.8107 15.112 29.7798 15.0542 29.788L11.9817 30.2299C11.5129 30.296 11.038 30.1638 10.6684 29.8623L9.64628 29.0281C9.35513 28.7907 9.30763 28.357 9.54511 28.0638C9.65662 27.9275 9.8156 27.8388 9.98907 27.8161L12.6114 27.4795C12.7787 27.4568 12.9253 27.3535 13.0017 27.2007Z" fill="#2A9EF1" fill-opacity="0.9"/>
</g>
</g>
<mask id="mask2_1995_71582" style="mask-type:luminance" maskUnits="userSpaceOnUse" x="21" y="21" width="18" height="18">
<path d="M38.0688 21.7241H21.5171V38.2758H38.0688V21.7241Z" fill="white"/>
</mask>
<g mask="url(#mask2_1995_71582)">
<mask id="mask3_1995_71582" style="mask-type:luminance" maskUnits="userSpaceOnUse" x="22" y="22" width="16" height="16">
<path d="M22.437 22.644H37.1497V37.3567H22.437V22.644Z" fill="white"/>
</mask>
<g mask="url(#mask3_1995_71582)">
<path opacity="0.6" d="M27.8982 27.2007L29.2197 24.568C29.3725 24.2644 29.7422 24.1426 30.0436 24.2954C30.1613 24.3553 30.2563 24.4523 30.3162 24.5721L31.5654 27.1119C31.6666 27.3205 31.8669 27.4609 32.0961 27.4877L34.7082 27.8016C35.0633 27.8449 35.3173 28.1691 35.276 28.5264C35.2574 28.673 35.1914 28.8092 35.086 28.9125L33.0191 30.9505C32.9344 31.0331 32.8952 31.1487 32.9097 31.2665L33.2545 34.0169C33.304 34.4113 33.0253 34.7706 32.633 34.8201C32.4843 34.8387 32.3356 34.8118 32.2035 34.7396L30.0209 33.5461C29.8619 33.4594 29.6719 33.4573 29.513 33.5399L27.2498 34.7003C26.9318 34.8635 26.5437 34.7355 26.3805 34.4154C26.3186 34.2956 26.2979 34.1614 26.3165 34.0293L26.4962 32.7656C26.585 32.1481 26.9669 31.6113 27.5203 31.3284L30.0312 30.0461C30.0973 30.0131 30.1241 29.9305 30.0911 29.8623C30.0643 29.8107 30.0085 29.7798 29.9507 29.788L26.8782 30.2299C26.4094 30.296 25.9345 30.1638 25.5649 29.8623L24.5428 29.0281C24.2516 28.7907 24.2041 28.357 24.4416 28.0638C24.5531 27.9275 24.7121 27.8388 24.8855 27.8161L27.5079 27.4795C27.6752 27.4568 27.8218 27.3535 27.8982 27.2007Z" fill="#2A9EF1" fill-opacity="0.9"/>
</g>
</g>
<mask id="mask4_1995_71582" style="mask-type:luminance" maskUnits="userSpaceOnUse" x="36" y="21" width="17" height="18">
<path d="M52.9653 21.7241H36.4136V38.2758H52.9653V21.7241Z" fill="white"/>
</mask>
<g mask="url(#mask4_1995_71582)">
<mask id="mask5_1995_71582" style="mask-type:luminance" maskUnits="userSpaceOnUse" x="37" y="22" width="16" height="16">
<path d="M37.3335 22.644H52.0463V37.3567H37.3335V22.644Z" fill="white"/>
</mask>
<g mask="url(#mask5_1995_71582)">
<path opacity="0.6" d="M42.7947 27.2007L44.1164 24.568C44.2691 24.2644 44.6386 24.1426 44.9403 24.2954C45.0578 24.3553 45.1529 24.4523 45.2125 24.5721L46.4618 27.1119C46.5632 27.3205 46.7634 27.4609 46.9927 27.4877L49.6045 27.8016C49.96 27.8449 50.2136 28.1691 50.1727 28.5264C50.154 28.673 50.0878 28.8092 49.9827 28.9125L47.9154 30.9505C47.831 31.0331 47.7917 31.1487 47.8062 31.2665L48.1509 34.0169C48.2005 34.4113 47.9216 34.7706 47.5294 34.8201C47.3808 34.8387 47.2323 34.8118 47.0998 34.7396L44.9175 33.5461C44.7582 33.4594 44.5683 33.4573 44.4094 33.5399L42.1463 34.7003C41.8281 34.8635 41.44 34.7355 41.277 34.4154C41.215 34.2956 41.1944 34.1614 41.213 34.0293L41.3928 32.7656C41.4814 32.1481 41.8633 31.6113 42.4169 31.3284L44.9278 30.0461C44.9936 30.0131 45.0205 29.9305 44.9874 29.8623C44.9609 29.8107 44.9051 29.7798 44.8472 29.788L41.7747 30.2299C41.3059 30.296 40.831 30.1638 40.4614 29.8623L39.4392 29.0281C39.1481 28.7907 39.1006 28.357 39.3381 28.0638C39.4496 27.9275 39.6086 27.8388 39.782 27.8161L42.4045 27.4795C42.5717 27.4568 42.7182 27.3535 42.7947 27.2007Z" fill="#2A9EF1" fill-opacity="0.9"/>
</g>
</g>
</g>
<defs>
<linearGradient id="paint0_linear_1995_71582" x1="30" y1="0" x2="30" y2="60" gradientUnits="userSpaceOnUse">
<stop stop-color="#72D5FD"/>
<stop offset="1" stop-color="#2A9EF1"/>
</linearGradient>
<radialGradient id="paint1_radial_1995_71582" cx="0" cy="0" r="1" gradientUnits="userSpaceOnUse" gradientTransform="translate(29.9999 30) rotate(90) scale(43.8836 39.8376)">
<stop stop-color="white"/>
<stop offset="1" stop-color="white" stop-opacity="0"/>
</radialGradient>
<radialGradient id="paint2_radial_1995_71582" cx="0" cy="0" r="1" gradientUnits="userSpaceOnUse" gradientTransform="translate(29.9999 30.0002) rotate(90) scale(43.8836 39.8376)">
<stop stop-color="white"/>
<stop offset="1" stop-color="white" stop-opacity="0"/>
</radialGradient>
<radialGradient id="paint3_radial_1995_71582" cx="0" cy="0" r="1" gradientUnits="userSpaceOnUse" gradientTransform="translate(30 29.9999) rotate(90) scale(19.9603 30.0074)">
<stop stop-color="#EBF7FE"/>
<stop offset="1" stop-color="#BEE7FD"/>
</radialGradient>
<radialGradient id="paint4_radial_1995_71582" cx="0" cy="0" r="1" gradientUnits="userSpaceOnUse" gradientTransform="translate(30 29.9998) rotate(90) scale(19.9603 30.0074)">
<stop stop-color="#EBF7FE"/>
<stop offset="1" stop-color="#BEE7FD"/>
</radialGradient>
<radialGradient id="paint5_radial_1995_71582" cx="0" cy="0" r="1" gradientUnits="userSpaceOnUse" gradientTransform="translate(30 30.0001) rotate(90) scale(19.9603 30.0074)">
<stop stop-color="#EBF7FE"/>
<stop offset="1" stop-color="#BEE7FD"/>
</radialGradient>
<radialGradient id="paint6_radial_1995_71582" cx="0" cy="0" r="1" gradientUnits="userSpaceOnUse" gradientTransform="translate(30.0002 29.9998) rotate(180) scale(26.6897 13.9764)">
<stop stop-color="white"/>
<stop offset="1" stop-color="#DAF0FD"/>
</radialGradient>
<clipPath id="clip0_1995_71582">
<rect width="60" height="60" rx="14" fill="white"/>
</clipPath>
</defs>
</svg>
