<svg width="60" height="60" viewBox="0 0 60 60" fill="none" xmlns="http://www.w3.org/2000/svg">
<g clip-path="url(#clip0_1995_71617)">
<mask id="mask0_1995_71617" style="mask-type:luminance" maskUnits="userSpaceOnUse" x="0" y="0" width="60" height="60">
<path d="M60 0H0V60H60V0Z" fill="white"/>
</mask>
<g mask="url(#mask0_1995_71617)">
<path d="M60 0H0V60H60V0Z" fill="url(#paint0_linear_1995_71617)"/>
<path fill-rule="evenodd" clip-rule="evenodd" d="M62.1372 25.0715C71.8704 25.0715 79.7611 17.1814 79.7611 7.44807C79.7611 -2.28521 71.8704 -10.1753 62.1372 -10.1753C52.4044 -10.1753 44.5142 -2.28521 44.5142 7.44807C44.5142 17.1814 52.4044 25.0715 62.1372 25.0715ZM60.8296 -2.72L58.0626 2.67963C57.9028 2.99171 57.5962 3.2053 57.2441 3.24972L51.7531 3.94221C51.3897 3.98802 51.0583 4.16963 50.8274 4.44944C50.3309 5.05118 50.424 5.93516 51.0351 6.42393L53.1769 8.13671C53.9478 8.75305 54.9446 9.02495 55.9274 8.887L62.3577 7.98443C62.4786 7.96751 62.5969 8.02808 62.6524 8.13517C62.7235 8.27338 62.6677 8.44237 62.5274 8.5126L57.2693 11.1438C56.1111 11.7234 55.3121 12.8215 55.1271 14.0875L54.7485 16.6759C54.7088 16.9486 54.756 17.2268 54.883 17.4722C55.2231 18.1281 56.0391 18.3883 56.7053 18.0534L61.4391 15.6737C61.7743 15.5052 62.1724 15.5103 62.503 15.6873L67.0721 18.1333C67.3473 18.2807 67.6626 18.3393 67.9737 18.3009C68.7939 18.1996 69.3757 17.4628 69.2726 16.6552L68.5539 11.0136C68.5237 10.7746 68.6081 10.5353 68.7827 10.3666L73.1077 6.18782C73.3274 5.97534 73.4673 5.69545 73.5037 5.39429C73.5922 4.66304 73.0622 3.99945 72.3194 3.91212L66.8478 3.26887C66.3691 3.21261 65.952 2.92217 65.7384 2.49678L63.1257 -2.71055C63.0024 -2.95612 62.8013 -3.15562 62.5531 -3.27898C61.9204 -3.59319 61.1486 -3.34293 60.8296 -2.72Z" fill="white" fill-opacity="0.3"/>
<path fill-rule="evenodd" clip-rule="evenodd" d="M62.137 -8.41693C53.3754 -8.41693 46.2722 -1.31408 46.2722 7.44823C46.2722 16.2105 53.3754 23.3134 62.137 23.3134C70.8991 23.3134 78.0023 16.2105 78.0023 7.44823C78.0023 -1.31402 70.8991 -8.41693 62.137 -8.41693ZM42.7554 7.44823C42.7554 -3.25615 51.433 -11.9336 62.137 -11.9336C72.841 -11.9336 81.5191 -3.25621 81.5191 7.44823C81.5191 18.1526 72.841 26.83 62.137 26.83C51.433 26.83 42.7554 18.1526 42.7554 7.44823Z" fill="#F4D9FA"/>
<path fill-rule="evenodd" clip-rule="evenodd" d="M58.0631 2.6797L60.8297 -2.71994C61.1487 -3.34286 61.9204 -3.59312 62.5531 -3.27891C62.8018 -3.15556 63.0025 -2.95606 63.1258 -2.71048L65.7385 2.49685C65.952 2.92223 66.3695 3.21268 66.8479 3.26894L72.3195 3.91219C73.0622 3.99952 73.5927 4.66309 73.5038 5.39435C73.4673 5.6955 73.3275 5.97544 73.1077 6.18788L68.7828 10.3666C68.6082 10.5354 68.5238 10.7747 68.5544 11.0137L69.2727 16.6552C69.3757 17.4629 68.794 18.1997 67.9738 18.301C67.6626 18.3394 67.3473 18.2808 67.0722 18.1334L62.5031 15.6874C62.1724 15.5104 61.7744 15.5053 61.4396 15.6738L56.7054 18.0534C56.0392 18.3884 55.2232 18.1281 54.8831 17.4723C54.756 17.2268 54.7089 16.9486 54.749 16.6759L55.1272 14.0876C55.3122 12.8216 56.1116 11.7235 57.2698 11.1439L62.5275 8.51269C62.6677 8.44243 62.7236 8.27344 62.6524 8.13523C62.597 8.02814 62.4786 7.96756 62.3578 7.98453L55.9275 8.88705C54.9447 9.02501 53.9479 8.75311 53.177 8.1368L51.0352 6.42399C50.424 5.93521 50.3309 5.05123 50.8275 4.44953C51.0584 4.16972 51.3898 3.98808 51.7531 3.94228L57.2442 3.24978C57.5963 3.20536 57.9029 2.99177 58.0631 2.6797Z" fill="white" fill-opacity="0.6"/>
<path fill-rule="evenodd" clip-rule="evenodd" d="M49.8084 66.1331C56.0455 66.1331 61.1021 61.077 61.1021 54.8395C61.1021 48.602 56.0455 43.5454 49.8084 43.5454C43.5709 43.5454 38.5146 48.602 38.5146 54.8395C38.5146 61.077 43.5709 66.1331 49.8084 66.1331ZM48.9701 48.3231L47.197 51.7836C47.0948 51.9835 46.8982 52.1204 46.6723 52.149L43.1534 52.5926C42.9208 52.622 42.7086 52.7382 42.5604 52.9178C42.2422 53.3035 42.3018 53.87 42.6937 54.1832L44.0662 55.2806C44.5599 55.6758 45.1988 55.85 45.829 55.7614L49.9495 55.1829C50.0269 55.1722 50.103 55.2111 50.1382 55.2798C50.1842 55.3683 50.1482 55.4767 50.0584 55.5214L46.6888 57.2076C45.9465 57.5792 45.4346 58.2831 45.3159 59.0941L45.0734 60.753C45.0477 60.9276 45.0779 61.106 45.1595 61.2632C45.3775 61.6836 45.9002 61.8504 46.3272 61.6356L49.3611 60.1108C49.5759 60.0028 49.8308 60.0061 50.0426 60.1195L52.9706 61.6869C53.1473 61.7813 53.3493 61.8189 53.5483 61.7941C54.0742 61.7295 54.447 61.2574 54.3808 60.7398L53.9203 57.1244C53.9008 56.9709 53.9551 56.8178 54.0672 56.7098L56.8384 54.0318C56.9795 53.8956 57.0688 53.716 57.0924 53.5232C57.1491 53.0544 56.8094 52.6294 56.3335 52.5735L52.827 52.161C52.5204 52.125 52.2527 51.9388 52.1162 51.6665L50.4415 48.3293C50.3629 48.172 50.2338 48.0442 50.0749 47.9651C49.6694 47.7636 49.1749 47.9242 48.9701 48.3231Z" fill="white" fill-opacity="0.4"/>
<path fill-rule="evenodd" clip-rule="evenodd" d="M49.8083 44.6725C44.1931 44.6725 39.6414 49.2246 39.6414 54.8398C39.6414 60.4549 44.1931 65.0067 49.8083 65.0067C55.4231 65.0067 59.9752 60.4549 59.9752 54.8398C59.9752 49.2246 55.4231 44.6725 49.8083 44.6725ZM37.3877 54.8398C37.3877 47.9799 42.9485 42.4189 49.8083 42.4189C56.6678 42.4189 62.2291 47.9799 62.2291 54.8398C62.2291 61.6996 56.6678 67.2602 49.8083 67.2602C42.9485 67.2602 37.3877 61.6996 37.3877 54.8398Z" fill="#F4D9FA"/>
<path fill-rule="evenodd" clip-rule="evenodd" d="M47.1966 51.7839L48.9697 48.3233C49.1745 47.9244 49.669 47.7639 50.0745 47.9654C50.2334 48.0444 50.3625 48.1723 50.4411 48.3296L52.1157 51.6668C52.2523 51.9391 52.52 52.1253 52.8266 52.1613L56.3331 52.5734C56.809 52.6297 57.1487 53.0547 57.092 53.5235C57.0684 53.7163 56.9791 53.8959 56.8379 54.032L54.0668 56.7101C53.9546 56.8181 53.9004 56.9712 53.9199 57.1247L54.3804 60.74C54.4466 61.2573 54.0738 61.7298 53.5479 61.7944C53.3488 61.8192 53.1469 61.7816 52.9702 61.6872L50.0422 60.1198C49.8304 60.0064 49.5755 60.0031 49.3607 60.1111L46.3268 61.6359C45.8997 61.8507 45.3771 61.6839 45.1591 61.2635C45.0775 61.1062 45.0473 60.9279 45.073 60.7533L45.3155 59.0944C45.4338 58.2829 45.9461 57.5795 46.6884 57.2079L50.058 55.5217C50.1477 55.4766 50.1837 55.3686 50.1378 55.28C50.1026 55.2113 50.0265 55.1724 49.9491 55.1832L45.8286 55.7617C45.1984 55.8502 44.5595 55.676 44.0658 55.2809L42.6933 54.1835C42.3014 53.8702 42.2418 53.3038 42.56 52.9181C42.7082 52.7385 42.9204 52.6222 43.153 52.5929L46.6719 52.1493C46.8978 52.1207 47.0944 51.9838 47.1966 51.7839Z" fill="white" fill-opacity="0.7"/>
<path fill-rule="evenodd" clip-rule="evenodd" d="M13.4478 40.3784C26.0354 40.3784 36.2404 30.1742 36.2404 17.5862C36.2404 4.99817 26.0354 -5.20605 13.4478 -5.20605C0.860155 -5.20605 -9.34424 4.99817 -9.34424 17.5862C-9.34424 30.1742 0.860155 40.3784 13.4478 40.3784ZM11.7565 4.43595L8.17841 11.4193C7.9716 11.8229 7.57481 12.0991 7.11935 12.1566L0.0179525 13.0522C-0.4518 13.1114 -0.88039 13.3463 -1.179 13.7082C-1.82111 14.4864 -1.70085 15.6296 -0.910386 16.2618L1.85959 18.4769C2.85632 19.274 4.14562 19.6257 5.41692 19.4472L13.7332 18.28C13.8894 18.258 14.0425 18.3364 14.114 18.4749C14.2063 18.6536 14.1339 18.8722 13.9524 18.9631L7.15245 22.366C5.6546 23.1156 4.62095 24.5358 4.38161 26.173L3.8923 29.5205C3.84074 29.8733 3.90144 30.233 4.06606 30.5504C4.50604 31.3987 5.56121 31.7352 6.42285 31.3021L12.5453 28.2245C12.9787 28.0066 13.4933 28.0132 13.9209 28.242L19.8301 31.4055C20.1861 31.5961 20.5939 31.6719 20.996 31.6222C22.057 31.4912 22.8093 30.5383 22.6762 29.4938L21.7467 22.1976C21.7073 21.8885 21.8167 21.579 22.0426 21.3608L27.6357 15.9564C27.9201 15.6816 28.1008 15.3196 28.148 14.9302C28.2628 13.9844 27.577 13.1262 26.6163 13.0133L19.5401 12.1814C18.9211 12.1086 18.3815 11.7329 18.1054 11.1828L14.7262 4.44819C14.5668 4.13059 14.307 3.87257 13.9857 3.71304C13.1673 3.30667 12.1693 3.63034 11.7565 4.43595Z" fill="white" fill-opacity="0.4"/>
<path fill-rule="evenodd" clip-rule="evenodd" d="M13.4479 -2.93244C2.11632 -2.93244 -7.07 6.25366 -7.07 17.5859C-7.07 28.9182 2.11632 38.1043 13.4479 38.1043C24.7796 38.1043 33.9664 28.9181 33.9664 17.5859C33.9664 6.25374 24.7796 -2.93244 13.4479 -2.93244ZM-11.6182 17.5859C-11.6182 3.74199 -0.395698 -7.48047 13.4479 -7.48047C27.2915 -7.48047 38.5146 3.74192 38.5146 17.5859C38.5146 31.4299 27.2915 42.6523 13.4479 42.6523C-0.395698 42.6523 -11.6182 31.4299 -11.6182 17.5859Z" fill="#F4D9FA"/>
<path fill-rule="evenodd" clip-rule="evenodd" d="M8.17835 11.4193L11.7565 4.43593C12.1693 3.63031 13.1673 3.30665 13.9856 3.71302C14.3069 3.87256 14.5668 4.13056 14.7262 4.44818L18.1054 11.1828C18.3815 11.7329 18.9211 12.1086 19.54 12.1813L26.6163 13.0132C27.577 13.1262 28.2628 13.9844 28.148 14.9301C28.1008 15.3196 27.9201 15.6816 27.6357 15.9564L22.0426 21.3608C21.8167 21.579 21.7073 21.8885 21.7467 22.1975L22.6762 29.4938C22.8092 30.5383 22.057 31.4912 20.996 31.6222C20.5939 31.6719 20.1861 31.5961 19.8301 31.4055L13.9208 28.242C13.4933 28.0132 12.9786 28.0066 12.5452 28.2244L6.42283 31.3021C5.56119 31.7352 4.50602 31.3987 4.06603 30.5504C3.90142 30.233 3.84072 29.8732 3.89227 29.5205L4.38159 26.173C4.62093 24.5357 5.65459 23.1155 7.15244 22.366L13.9523 18.963C14.1339 18.8722 14.2063 18.6536 14.114 18.4749C14.0425 18.3364 13.8894 18.258 13.7332 18.28L5.41686 19.4472C4.14557 19.6257 2.8563 19.274 1.85957 18.4769L-0.910407 16.2618C-1.70087 15.6296 -1.82113 14.4863 -1.17902 13.7082C-0.880411 13.3463 -0.451821 13.1114 0.0179304 13.0521L7.11933 12.1566C7.57475 12.0991 7.97158 11.8229 8.17835 11.4193Z" fill="white" fill-opacity="0.7"/>
<g filter="url(#filter0_d_1995_71617)">
<path fill-rule="evenodd" clip-rule="evenodd" d="M23.5541 18.8513C24.7059 15.1409 28.6474 13.0667 32.3578 14.2185C37.8351 15.9187 44.0425 19.0963 48.2597 23.3204C50.3684 25.4326 52.4945 28.3233 53.2319 31.9299C54.0473 35.9173 52.9696 39.8477 50.2476 43.0898C47.0048 46.9519 42.7444 47.9861 39.1723 47.9997C36.1855 48.0111 33.055 47.301 30.7998 46.7895C30.6336 46.7518 30.4721 46.7152 30.3158 46.68C27.6276 46.0749 25.8472 45.7284 24.3855 45.7541C23.1965 45.775 22.8051 46.0331 22.4989 46.3294C22.1679 46.6498 22.1608 46.7814 22.1571 46.8494C22.1568 46.8552 22.1565 46.8606 22.156 46.8656C22.1339 47.1016 22.1597 47.791 22.715 49.0671C23.8777 51.7396 26.5201 55.1065 30.1424 58.6903C33.6445 62.1553 37.5639 65.3417 40.6624 67.6926C42.1993 68.8588 43.507 69.7988 44.4228 70.4422C44.8801 70.7634 45.2382 71.0097 45.4765 71.1719C45.5956 71.253 45.6846 71.3131 45.7411 71.351C45.757 71.3617 45.7703 71.3706 45.781 71.3778L45.8097 71.3969C45.8101 71.3972 45.8105 71.3975 45.811 71.3978C49.0484 73.5441 49.9335 77.9084 47.7877 81.1465C45.6417 84.385 41.2766 85.2706 38.0381 83.1246L41.9239 77.2607C38.0381 83.1246 38.0369 83.1238 38.0355 83.1229L38.0321 83.1206L37.9941 83.0953C37.9706 83.0797 37.9385 83.0582 37.898 83.031C37.817 82.9766 37.7026 82.8994 37.5573 82.8004C37.2668 82.6026 36.8525 82.3176 36.3354 81.9544C35.3024 81.2287 33.8534 80.1867 32.1584 78.9006C28.793 76.3471 24.3479 72.7486 20.2473 68.6915C16.2668 64.7532 12.0682 59.8608 9.81414 54.68C8.66096 52.0296 7.83448 48.8938 8.1488 45.5492C8.47939 42.0315 10.0273 38.8205 12.7148 36.2196C16.2514 32.797 20.4364 31.7524 24.1383 31.6873C27.5141 31.628 30.8858 32.3871 33.2917 32.9288C33.3297 32.9374 33.3675 32.9459 33.405 32.9543C36.0763 33.5556 37.6737 33.8974 38.9101 33.9286C38.7545 33.7368 38.556 33.5136 38.3033 33.2605C36.1639 31.1176 32.2044 28.9021 28.1869 27.655C24.4766 26.5033 22.4024 22.5617 23.5541 18.8513Z" fill="url(#paint1_linear_1995_71617)"/>
</g>
</g>
</g>
<defs>
<filter id="filter0_d_1995_71617" x="-41.9185" y="-19.0996" width="145.417" height="170.396" filterUnits="userSpaceOnUse" color-interpolation-filters="sRGB">
<feFlood flood-opacity="0" result="BackgroundImageFix"/>
<feColorMatrix in="SourceAlpha" type="matrix" values="0 0 0 0 0 0 0 0 0 0 0 0 0 0 0 0 0 0 127 0" result="hardAlpha"/>
<feOffset dy="17"/>
<feGaussianBlur stdDeviation="25"/>
<feComposite in2="hardAlpha" operator="out"/>
<feColorMatrix type="matrix" values="0 0 0 0 0.839216 0 0 0 0 0.411765 0 0 0 0 0.929412 0 0 0 0.6 0"/>
<feBlend mode="normal" in2="BackgroundImageFix" result="effect1_dropShadow_1995_71617"/>
<feBlend mode="normal" in="SourceGraphic" in2="effect1_dropShadow_1995_71617" result="shape"/>
</filter>
<linearGradient id="paint0_linear_1995_71617" x1="30" y1="0" x2="30" y2="60" gradientUnits="userSpaceOnUse">
<stop stop-color="#E0A2F3"/>
<stop offset="1" stop-color="#D669ED"/>
</linearGradient>
<linearGradient id="paint1_linear_1995_71617" x1="26.2893" y1="18.1589" x2="14.2026" y2="89.0497" gradientUnits="userSpaceOnUse">
<stop stop-color="white"/>
<stop offset="1" stop-color="#D669ED"/>
</linearGradient>
<clipPath id="clip0_1995_71617">
<rect width="60" height="60" rx="14" fill="white"/>
</clipPath>
</defs>
</svg>
